<mxfile host="app.diagrams.net" agent="Mozilla/5.0 (Windows NT 10.0; Win64; x64) AppleWebKit/537.36 (KHTML, like Gecko) Chrome/127.0.0.0 Safari/537.36" version="24.7.7">
  <diagram name="Page-1" id="D8ZTVw7AKKLbY-BaEd7L">
    <mxGraphModel dx="2417" dy="930" grid="1" gridSize="10" guides="1" tooltips="1" connect="1" arrows="1" fold="1" page="1" pageScale="1" pageWidth="827" pageHeight="1169" math="0" shadow="0">
      <root>
        <mxCell id="0" />
        <mxCell id="1" parent="0" />
        <mxCell id="dowRgMP4Ozl2CRbKPoxW-1" value="CLOSE" style="rounded=0;whiteSpace=wrap;html=1;fillColor=#f5f5f5;fontColor=#333333;strokeColor=#666666;fontStyle=1;fontSize=14;" parent="1" vertex="1">
          <mxGeometry x="120" y="80" width="120" height="60" as="geometry" />
        </mxCell>
        <mxCell id="dowRgMP4Ozl2CRbKPoxW-14" style="rounded=0;orthogonalLoop=1;jettySize=auto;html=1;exitX=1;exitY=0;exitDx=0;exitDy=0;entryX=0;entryY=0;entryDx=0;entryDy=0;" parent="1" source="dowRgMP4Ozl2CRbKPoxW-2" target="dowRgMP4Ozl2CRbKPoxW-8" edge="1">
          <mxGeometry relative="1" as="geometry" />
        </mxCell>
        <mxCell id="dowRgMP4Ozl2CRbKPoxW-15" value="&lt;b style=&quot;font-size: 16px;&quot;&gt;&lt;font color=&quot;#99ccff&quot; style=&quot;font-size: 16px;&quot;&gt;SYN&amp;nbsp;&lt;/font&gt;&lt;/b&gt;&lt;div style=&quot;font-size: 16px;&quot;&gt;&lt;b style=&quot;&quot;&gt;&lt;font color=&quot;#99ccff&quot; style=&quot;font-size: 16px;&quot;&gt;Seq Num = client_isn&lt;/font&gt;&lt;/b&gt;&lt;/div&gt;" style="edgeLabel;html=1;align=center;verticalAlign=middle;resizable=0;points=[];" parent="dowRgMP4Ozl2CRbKPoxW-14" vertex="1" connectable="0">
          <mxGeometry x="-0.2047" y="-1" relative="1" as="geometry">
            <mxPoint x="25" y="-5" as="offset" />
          </mxGeometry>
        </mxCell>
        <mxCell id="dowRgMP4Ozl2CRbKPoxW-2" value="SYN_SENT" style="rounded=0;whiteSpace=wrap;html=1;fontStyle=1;fontSize=14;fillColor=#ffe6cc;strokeColor=#d79b00;" parent="1" vertex="1">
          <mxGeometry x="120" y="140" width="120" height="240" as="geometry" />
        </mxCell>
        <mxCell id="dowRgMP4Ozl2CRbKPoxW-4" value="ESTABLISHED" style="rounded=0;whiteSpace=wrap;html=1;fontStyle=1;fontSize=14;fillColor=#d5e8d4;strokeColor=#82b366;" parent="1" vertex="1">
          <mxGeometry x="120" y="380" width="120" height="120" as="geometry" />
        </mxCell>
        <mxCell id="dowRgMP4Ozl2CRbKPoxW-6" value="CLOSE" style="rounded=0;whiteSpace=wrap;html=1;fillColor=#f5f5f5;fontColor=#333333;strokeColor=#666666;fontStyle=1;fontSize=14;" parent="1" vertex="1">
          <mxGeometry x="580" y="80" width="120" height="60" as="geometry" />
        </mxCell>
        <mxCell id="dowRgMP4Ozl2CRbKPoxW-7" value="LISTEN" style="rounded=0;whiteSpace=wrap;html=1;fontStyle=1;fontSize=14;fillColor=#dae8fc;strokeColor=#6c8ebf;" parent="1" vertex="1">
          <mxGeometry x="580" y="140" width="120" height="60" as="geometry" />
        </mxCell>
        <mxCell id="dowRgMP4Ozl2CRbKPoxW-8" value="SYN_REVD" style="rounded=0;whiteSpace=wrap;html=1;fontStyle=1;fontSize=14;fillColor=#fff2cc;strokeColor=#d6b656;" parent="1" vertex="1">
          <mxGeometry x="580" y="200" width="120" height="240" as="geometry" />
        </mxCell>
        <mxCell id="dowRgMP4Ozl2CRbKPoxW-10" value="ESTABLISHED" style="rounded=0;whiteSpace=wrap;html=1;fontStyle=1;fontSize=14;fillColor=#d5e8d4;strokeColor=#82b366;" parent="1" vertex="1">
          <mxGeometry x="580" y="440" width="120" height="60" as="geometry" />
        </mxCell>
        <mxCell id="dowRgMP4Ozl2CRbKPoxW-11" value="&lt;b&gt;&lt;font style=&quot;font-size: 20px;&quot;&gt;客户端&lt;/font&gt;&lt;/b&gt;" style="text;html=1;align=center;verticalAlign=middle;resizable=0;points=[];autosize=1;strokeColor=none;fillColor=none;" parent="1" vertex="1">
          <mxGeometry x="140" y="23" width="80" height="40" as="geometry" />
        </mxCell>
        <mxCell id="dowRgMP4Ozl2CRbKPoxW-12" value="&lt;b&gt;&lt;font style=&quot;font-size: 20px;&quot;&gt;服务端&lt;/font&gt;&lt;/b&gt;" style="text;html=1;align=center;verticalAlign=middle;resizable=0;points=[];autosize=1;strokeColor=none;fillColor=none;" parent="1" vertex="1">
          <mxGeometry x="600" y="23" width="80" height="40" as="geometry" />
        </mxCell>
        <mxCell id="dowRgMP4Ozl2CRbKPoxW-16" value="" style="endArrow=classic;html=1;rounded=0;exitX=0;exitY=0;exitDx=0;exitDy=0;entryX=1;entryY=0;entryDx=0;entryDy=0;" parent="1" source="dowRgMP4Ozl2CRbKPoxW-8" target="dowRgMP4Ozl2CRbKPoxW-4" edge="1">
          <mxGeometry width="50" height="50" relative="1" as="geometry">
            <mxPoint x="390" y="280" as="sourcePoint" />
            <mxPoint x="440" y="230" as="targetPoint" />
          </mxGeometry>
        </mxCell>
        <mxCell id="dowRgMP4Ozl2CRbKPoxW-19" value="&lt;b style=&quot;font-size: 16px;&quot;&gt;&lt;font color=&quot;#ffd966&quot; style=&quot;font-size: 16px;&quot;&gt;SYN + ACK&lt;/font&gt;&lt;/b&gt;&lt;div style=&quot;font-size: 16px;&quot;&gt;&lt;b&gt;&lt;font color=&quot;#ffd966&quot; style=&quot;font-size: 16px;&quot;&gt;ACK num = client_isn + 1&lt;/font&gt;&lt;/b&gt;&lt;/div&gt;&lt;div style=&quot;font-size: 16px;&quot;&gt;&lt;b style=&quot;&quot;&gt;&lt;font color=&quot;#ffd966&quot; style=&quot;font-size: 16px;&quot;&gt;Seq Num = server_isn&lt;/font&gt;&lt;/b&gt;&lt;/div&gt;" style="edgeLabel;html=1;align=center;verticalAlign=middle;resizable=0;points=[];" parent="dowRgMP4Ozl2CRbKPoxW-16" vertex="1" connectable="0">
          <mxGeometry x="-0.03" y="2" relative="1" as="geometry">
            <mxPoint as="offset" />
          </mxGeometry>
        </mxCell>
        <mxCell id="dowRgMP4Ozl2CRbKPoxW-17" value="" style="endArrow=classic;html=1;rounded=0;exitX=1;exitY=0;exitDx=0;exitDy=0;entryX=0;entryY=0;entryDx=0;entryDy=0;" parent="1" source="dowRgMP4Ozl2CRbKPoxW-4" target="dowRgMP4Ozl2CRbKPoxW-10" edge="1">
          <mxGeometry width="50" height="50" relative="1" as="geometry">
            <mxPoint x="390" y="280" as="sourcePoint" />
            <mxPoint x="440" y="230" as="targetPoint" />
          </mxGeometry>
        </mxCell>
        <mxCell id="dowRgMP4Ozl2CRbKPoxW-20" value="&lt;b style=&quot;font-size: 16px;&quot;&gt;&lt;font color=&quot;#97d077&quot; style=&quot;font-size: 16px;&quot;&gt;ACK&lt;/font&gt;&lt;/b&gt;&lt;div style=&quot;font-size: 16px;&quot;&gt;&lt;b style=&quot;&quot;&gt;&lt;font color=&quot;#97d077&quot; style=&quot;font-size: 16px;&quot;&gt;ACK Num = server_isn + 1&lt;/font&gt;&lt;/b&gt;&lt;/div&gt;" style="edgeLabel;html=1;align=center;verticalAlign=middle;resizable=0;points=[];" parent="dowRgMP4Ozl2CRbKPoxW-17" vertex="1" connectable="0">
          <mxGeometry x="-0.0866" y="-2" relative="1" as="geometry">
            <mxPoint as="offset" />
          </mxGeometry>
        </mxCell>
        <mxCell id="9E4xGgLINknw6aoOu8KV-1" value="CLOSE" style="rounded=0;whiteSpace=wrap;html=1;fillColor=#f5f5f5;fontColor=#333333;strokeColor=#666666;fontStyle=1;fontSize=14;" vertex="1" parent="1">
          <mxGeometry x="-600" y="80" width="120" height="60" as="geometry" />
        </mxCell>
        <mxCell id="9E4xGgLINknw6aoOu8KV-2" style="rounded=0;orthogonalLoop=1;jettySize=auto;html=1;exitX=1;exitY=0;exitDx=0;exitDy=0;entryX=0;entryY=0;entryDx=0;entryDy=0;" edge="1" parent="1" source="9E4xGgLINknw6aoOu8KV-4" target="9E4xGgLINknw6aoOu8KV-8">
          <mxGeometry relative="1" as="geometry" />
        </mxCell>
        <mxCell id="9E4xGgLINknw6aoOu8KV-3" value="&lt;b style=&quot;font-size: 16px;&quot;&gt;&lt;font color=&quot;#99ccff&quot; style=&quot;font-size: 16px;&quot;&gt;SYN&amp;nbsp;&lt;/font&gt;&lt;/b&gt;&lt;div style=&quot;font-size: 16px;&quot;&gt;&lt;b style=&quot;&quot;&gt;&lt;font color=&quot;#99ccff&quot; style=&quot;font-size: 16px;&quot;&gt;Seq Num = client_isn&lt;/font&gt;&lt;/b&gt;&lt;/div&gt;" style="edgeLabel;html=1;align=center;verticalAlign=middle;resizable=0;points=[];" vertex="1" connectable="0" parent="9E4xGgLINknw6aoOu8KV-2">
          <mxGeometry x="-0.2047" y="-1" relative="1" as="geometry">
            <mxPoint x="25" y="-5" as="offset" />
          </mxGeometry>
        </mxCell>
        <mxCell id="9E4xGgLINknw6aoOu8KV-4" value="SYN_SENT" style="rounded=0;whiteSpace=wrap;html=1;fontStyle=1;fontSize=14;fillColor=#ffe6cc;strokeColor=#d79b00;" vertex="1" parent="1">
          <mxGeometry x="-600" y="140" width="120" height="270" as="geometry" />
        </mxCell>
        <mxCell id="9E4xGgLINknw6aoOu8KV-5" value="ESTABLISHED" style="rounded=0;whiteSpace=wrap;html=1;fontStyle=1;fontSize=14;fillColor=#d5e8d4;strokeColor=#82b366;" vertex="1" parent="1">
          <mxGeometry x="-600" y="410" width="120" height="90" as="geometry" />
        </mxCell>
        <mxCell id="9E4xGgLINknw6aoOu8KV-6" value="CLOSE" style="rounded=0;whiteSpace=wrap;html=1;fillColor=#f5f5f5;fontColor=#333333;strokeColor=#666666;fontStyle=1;fontSize=14;" vertex="1" parent="1">
          <mxGeometry x="-140" y="80" width="120" height="60" as="geometry" />
        </mxCell>
        <mxCell id="9E4xGgLINknw6aoOu8KV-7" value="LISTEN" style="rounded=0;whiteSpace=wrap;html=1;fontStyle=1;fontSize=14;fillColor=#dae8fc;strokeColor=#6c8ebf;" vertex="1" parent="1">
          <mxGeometry x="-140" y="140" width="120" height="60" as="geometry" />
        </mxCell>
        <mxCell id="9E4xGgLINknw6aoOu8KV-8" value="SYN_REVD" style="rounded=0;whiteSpace=wrap;html=1;fontStyle=1;fontSize=14;fillColor=#fff2cc;strokeColor=#d6b656;" vertex="1" parent="1">
          <mxGeometry x="-140" y="200" width="120" height="240" as="geometry" />
        </mxCell>
        <mxCell id="9E4xGgLINknw6aoOu8KV-9" value="ESTABLISHED" style="rounded=0;whiteSpace=wrap;html=1;fontStyle=1;fontSize=14;fillColor=#d5e8d4;strokeColor=#82b366;" vertex="1" parent="1">
          <mxGeometry x="-140" y="440" width="120" height="60" as="geometry" />
        </mxCell>
        <mxCell id="9E4xGgLINknw6aoOu8KV-10" value="&lt;b&gt;&lt;font style=&quot;font-size: 20px;&quot;&gt;客户端&lt;/font&gt;&lt;/b&gt;" style="text;html=1;align=center;verticalAlign=middle;resizable=0;points=[];autosize=1;strokeColor=none;fillColor=none;" vertex="1" parent="1">
          <mxGeometry x="-580" y="23" width="80" height="40" as="geometry" />
        </mxCell>
        <mxCell id="9E4xGgLINknw6aoOu8KV-11" value="&lt;b&gt;&lt;font style=&quot;font-size: 20px;&quot;&gt;服务端&lt;/font&gt;&lt;/b&gt;" style="text;html=1;align=center;verticalAlign=middle;resizable=0;points=[];autosize=1;strokeColor=none;fillColor=none;" vertex="1" parent="1">
          <mxGeometry x="-120" y="23" width="80" height="40" as="geometry" />
        </mxCell>
        <mxCell id="9E4xGgLINknw6aoOu8KV-12" value="" style="endArrow=classic;html=1;rounded=0;exitX=0;exitY=0;exitDx=0;exitDy=0;entryX=1;entryY=0.75;entryDx=0;entryDy=0;" edge="1" parent="1" source="9E4xGgLINknw6aoOu8KV-8" target="9E4xGgLINknw6aoOu8KV-4">
          <mxGeometry width="50" height="50" relative="1" as="geometry">
            <mxPoint x="-330" y="280" as="sourcePoint" />
            <mxPoint x="-280" y="230" as="targetPoint" />
          </mxGeometry>
        </mxCell>
        <mxCell id="9E4xGgLINknw6aoOu8KV-13" value="&lt;font color=&quot;#ffd966&quot;&gt;&lt;span style=&quot;font-size: 16px;&quot;&gt;&lt;b&gt;ACK&lt;/b&gt;&lt;/span&gt;&lt;/font&gt;&lt;br&gt;&lt;div style=&quot;font-size: 16px;&quot;&gt;&lt;b&gt;&lt;font color=&quot;#ffd966&quot; style=&quot;font-size: 16px;&quot;&gt;ACK num = client_isn + 1&lt;/font&gt;&lt;/b&gt;&lt;/div&gt;" style="edgeLabel;html=1;align=center;verticalAlign=middle;resizable=0;points=[];" vertex="1" connectable="0" parent="9E4xGgLINknw6aoOu8KV-12">
          <mxGeometry x="-0.03" y="2" relative="1" as="geometry">
            <mxPoint as="offset" />
          </mxGeometry>
        </mxCell>
        <mxCell id="9E4xGgLINknw6aoOu8KV-14" value="" style="endArrow=classic;html=1;rounded=0;exitX=1;exitY=0;exitDx=0;exitDy=0;entryX=0;entryY=0;entryDx=0;entryDy=0;" edge="1" parent="1" source="9E4xGgLINknw6aoOu8KV-5" target="9E4xGgLINknw6aoOu8KV-9">
          <mxGeometry width="50" height="50" relative="1" as="geometry">
            <mxPoint x="-330" y="280" as="sourcePoint" />
            <mxPoint x="-280" y="230" as="targetPoint" />
          </mxGeometry>
        </mxCell>
        <mxCell id="9E4xGgLINknw6aoOu8KV-15" value="&lt;b style=&quot;font-size: 16px;&quot;&gt;&lt;font color=&quot;#97d077&quot; style=&quot;font-size: 16px;&quot;&gt;ACK&lt;/font&gt;&lt;/b&gt;&lt;div style=&quot;font-size: 16px;&quot;&gt;&lt;b style=&quot;&quot;&gt;&lt;font color=&quot;#97d077&quot; style=&quot;font-size: 16px;&quot;&gt;ACK Num = server_isn + 1&lt;/font&gt;&lt;/b&gt;&lt;/div&gt;" style="edgeLabel;html=1;align=center;verticalAlign=middle;resizable=0;points=[];" vertex="1" connectable="0" parent="9E4xGgLINknw6aoOu8KV-14">
          <mxGeometry x="-0.0866" y="-2" relative="1" as="geometry">
            <mxPoint as="offset" />
          </mxGeometry>
        </mxCell>
        <mxCell id="9E4xGgLINknw6aoOu8KV-16" value="" style="endArrow=classic;html=1;rounded=0;exitX=0;exitY=0.25;exitDx=0;exitDy=0;entryX=1;entryY=1;entryDx=0;entryDy=0;" edge="1" parent="1" source="9E4xGgLINknw6aoOu8KV-8" target="9E4xGgLINknw6aoOu8KV-4">
          <mxGeometry width="50" height="50" relative="1" as="geometry">
            <mxPoint x="-280" y="370" as="sourcePoint" />
            <mxPoint x="-110" y="310" as="targetPoint" />
          </mxGeometry>
        </mxCell>
        <mxCell id="9E4xGgLINknw6aoOu8KV-17" value="&lt;font color=&quot;#ffd966&quot; style=&quot;font-size: 16px;&quot;&gt;&lt;b&gt;SYN&lt;/b&gt;&lt;/font&gt;&lt;div style=&quot;font-size: 16px;&quot;&gt;&lt;font color=&quot;#ffd966&quot; style=&quot;font-size: 16px;&quot;&gt;&lt;b&gt;Seq Num = server_isn&lt;/b&gt;&lt;/font&gt;&lt;/div&gt;" style="edgeLabel;html=1;align=center;verticalAlign=middle;resizable=0;points=[];" vertex="1" connectable="0" parent="9E4xGgLINknw6aoOu8KV-16">
          <mxGeometry x="0.0818" y="1" relative="1" as="geometry">
            <mxPoint x="24" y="-12" as="offset" />
          </mxGeometry>
        </mxCell>
        <mxCell id="9E4xGgLINknw6aoOu8KV-18" value="" style="shape=curlyBracket;whiteSpace=wrap;html=1;rounded=1;flipH=1;labelPosition=right;verticalLabelPosition=middle;align=left;verticalAlign=middle;size=0;" vertex="1" parent="1">
          <mxGeometry x="-20" y="200" width="20" height="60" as="geometry" />
        </mxCell>
        <mxCell id="9E4xGgLINknw6aoOu8KV-19" value="&lt;font style=&quot;font-size: 17px;&quot;&gt;&lt;b&gt;合并&lt;/b&gt;&lt;/font&gt;" style="text;html=1;align=center;verticalAlign=middle;resizable=0;points=[];autosize=1;strokeColor=none;fillColor=none;" vertex="1" parent="1">
          <mxGeometry x="10" y="215" width="60" height="30" as="geometry" />
        </mxCell>
      </root>
    </mxGraphModel>
  </diagram>
</mxfile>
